# xmcd CD database file
#
# Track frame offsets:
#	150
#	20330
#	39182
#	56842
#
# Disc length: 968 seconds
#
# Revision: 1
# Processed by: cddbd v1.5.1PL0 Copyright (c) Steve Scherf et al.
# Submitted via: CDex 1.51
#
DISCID=2803c604
DTITLE=Bright Eyes - Lua EP
DYEAR=2004
DGENRE=Rock
TTITLE0=Lua
TTITLE1=Well Whiskey
TTITLE2=I Woke Up With This Song In My Head This Morning
TTITLE3=True Blue
EXTD=YEAR: 2004
EXTT0=
EXTT1=
EXTT2=
EXTT3=
PLAYORDER=
